<?xml version="1.0" encoding="UTF-8" standalone="no"?>
<!-- Created with Inkscape (http://www.inkscape.org/) -->

<svg
   xmlns:dc="http://purl.org/dc/elements/1.1/"
   xmlns:cc="http://creativecommons.org/ns#"
   xmlns:rdf="http://www.w3.org/1999/02/22-rdf-syntax-ns#"
   xmlns:svg="http://www.w3.org/2000/svg"
   xmlns="http://www.w3.org/2000/svg"
   xmlns:sodipodi="http://sodipodi.sourceforge.net/DTD/sodipodi-0.dtd"
   xmlns:inkscape="http://www.inkscape.org/namespaces/inkscape"
   width="210mm"
   height="297mm"
   viewBox="0 0 210 297"
   version="1.1"
   id="svg8"
   inkscape:version="0.92.4 (5da689c313, 2019-01-14)"
   sodipodi:docname="icon.svg">
  <defs
     id="defs2" />
  <sodipodi:namedview
     id="base"
     pagecolor="#ffffff"
     bordercolor="#666666"
     borderopacity="1.0"
     inkscape:pageopacity="0.0"
     inkscape:pageshadow="2"
     inkscape:zoom="0.12374369"
     inkscape:cx="-1601.8474"
     inkscape:cy="459.40921"
     inkscape:document-units="mm"
     inkscape:current-layer="layer1"
     showgrid="false"
     showborder="false"
     inkscape:pagecheckerboard="true"
     inkscape:window-width="1858"
     inkscape:window-height="1057"
     inkscape:window-x="1334"
     inkscape:window-y="-8"
     inkscape:window-maximized="1" />
  <metadata
     id="metadata5">
    <rdf:RDF>
      <cc:Work
         rdf:about="">
        <dc:format>image/svg+xml</dc:format>
        <dc:type
           rdf:resource="http://purl.org/dc/dcmitype/StillImage" />
        <dc:title></dc:title>
      </cc:Work>
    </rdf:RDF>
  </metadata>
  <g
     inkscape:label="Layer 1"
     inkscape:groupmode="layer"
     id="layer1">
    <circle
       style="fill:#2a8e3b;fill-opacity:1;stroke:none;stroke-width:4.23333311;stroke-linecap:round;stroke-miterlimit:4;stroke-dasharray:none;stroke-dashoffset:0;stroke-opacity:1"
       id="path815"
       cx="-69.073326"
       cy="118.60636"
       r="100" />
    <circle
       style="fill:#2a8e3b;fill-opacity:1;stroke:none;stroke-width:4.23333311;stroke-linecap:round;stroke-miterlimit:4;stroke-dasharray:none;stroke-dashoffset:0;stroke-opacity:1"
       id="path815-4"
       cx="60.216785"
       cy="152.85023"
       r="100" />
    <circle
       style="fill:#2a8e3b;fill-opacity:1;stroke:none;stroke-width:4.23333311;stroke-linecap:round;stroke-miterlimit:4;stroke-dasharray:none;stroke-dashoffset:0;stroke-opacity:1"
       id="path815-41"
       cx="11.728388"
       cy="-8.7938538"
       r="100" />
    <circle
       style="fill:#2a8e3b;fill-opacity:1;stroke:none;stroke-width:4.23333311;stroke-linecap:round;stroke-miterlimit:4;stroke-dasharray:none;stroke-dashoffset:0;stroke-opacity:1"
       id="path815-8"
       cx="-135.66006"
       cy="-18.773201"
       r="100" />
    <circle
       style="fill:#2a8e3b;fill-opacity:1;stroke:none;stroke-width:4.23333311;stroke-linecap:round;stroke-miterlimit:4;stroke-dasharray:none;stroke-dashoffset:0;stroke-opacity:1"
       id="path815-1"
       cx="-47.128445"
       cy="-141.64502"
       r="100" />
    <circle
       style="fill:#2a8e3b;fill-opacity:1;stroke:none;stroke-width:4.23333311;stroke-linecap:round;stroke-miterlimit:4;stroke-dasharray:none;stroke-dashoffset:0;stroke-opacity:1"
       id="path815-2"
       cx="179.65727"
       cy="93.152267"
       r="100" />
    <circle
       style="fill:#2a8e3b;fill-opacity:1;stroke:none;stroke-width:4.23333311;stroke-linecap:round;stroke-miterlimit:4;stroke-dasharray:none;stroke-dashoffset:0;stroke-opacity:1"
       id="path815-9"
       cx="185.79008"
       cy="-35.015045"
       r="100" />
    <circle
       style="fill:#2a8e3b;fill-opacity:1;stroke:none;stroke-width:4.23333311;stroke-linecap:round;stroke-miterlimit:4;stroke-dasharray:none;stroke-dashoffset:0;stroke-opacity:1"
       id="path815-41-8"
       cx="98.355186"
       cy="-154.15097"
       r="100" />
    <g
       aria-label="GG"
       style="font-style:normal;font-variant:normal;font-weight:bold;font-stretch:normal;font-size:211.66668701px;line-height:1.25;font-family:'Noto Sans';-inkscape-font-specification:'Noto Sans Bold';text-align:start;letter-spacing:0px;word-spacing:0px;text-anchor:start;fill:#c8ff54;fill-opacity:1;stroke:none;stroke-width:0.26458332"
       id="text1189">
      <path
         d="M -58.432663,-5.8082937 H 16.444423 V 92.087543 q -14.8166674,5.027084 -30.956251,7.937497 -16.139584,2.91042 -36.247918,2.91042 -42.333335,0 -65.087504,-24.870834 -22.75417,-24.870834 -22.75417,-72.4958359 0,-29.6333341 11.37709,-51.3291691 11.37708,-21.695834 33.337499,-33.602084 22.225,-11.906251 53.975002,-11.906251 15.08125,0 29.633334,3.175 14.5520841,3.175001 26.458335,8.466667 L 2.9506723,-47.612462 q -8.7312503,-4.497917 -19.8437503,-7.408334 -11.112501,-2.910416 -23.283335,-2.910416 -17.4625,0 -30.427084,7.9375 -12.700001,7.9375 -19.843751,22.489584 -6.879167,14.552084 -6.879167,33.8666681 0,18.5208339 5.027084,32.8083349 5.027083,14.2875 15.875,22.489584 10.847917,7.9375 28.310418,7.9375 8.466667,0 14.287501,-0.79375 5.820833,-0.79375 11.1125,-1.852083 V 27.529208 h -35.718751 z"
         style="font-style:normal;font-variant:normal;font-weight:bold;font-stretch:normal;font-size:264.58334351px;font-family:'Noto Sans';-inkscape-font-specification:'Noto Sans Bold';text-align:start;text-anchor:start;fill:#c8ff54;fill-opacity:1;stroke-width:0.26458332"
         id="path825"
         inkscape:connector-curvature="0" />
      <path
         d="M 133.28691,-5.8082937 H 208.164 V 92.087543 q -14.81667,5.027084 -30.95625,7.937497 -16.13959,2.91042 -36.24792,2.91042 -42.333337,0 -65.087505,-24.870834 Q 53.118158,53.193792 53.118158,5.5687901 q 0,-29.6333341 11.377083,-51.3291691 11.377084,-21.695834 33.337502,-33.602084 22.224997,-11.906251 53.974997,-11.906251 15.08126,0 29.63334,3.175 14.55208,3.175001 26.45833,8.466667 l -13.22916,32.014585 q -8.73125,-4.497917 -19.84375,-7.408334 -11.1125,-2.910416 -23.28334,-2.910416 -17.4625,0 -30.42708,7.9375 -12.7,7.9375 -19.84375,22.489584 -6.879171,14.552084 -6.879171,33.8666681 0,18.5208339 5.027084,32.8083349 5.027087,14.2875 15.874997,22.489584 10.84792,7.9375 28.31042,7.9375 8.46667,0 14.2875,-0.79375 5.82084,-0.79375 11.1125,-1.852083 V 27.529208 h -35.71875 z"
         style="font-style:normal;font-variant:normal;font-weight:bold;font-stretch:normal;font-size:264.58334351px;font-family:'Noto Sans';-inkscape-font-specification:'Noto Sans Bold';text-align:start;text-anchor:start;fill:#c8ff54;fill-opacity:1;stroke-width:0.26458332"
         id="path827"
         inkscape:connector-curvature="0" />
    </g>
  </g>
</svg>
